<svg xmlns="http://www.w3.org/2000/svg" viewBox="0 0 55.9 40.62"><defs><style>.cls-1{fill:#fff;}</style></defs><g id="Layer_2" data-name="Layer 2"><g id="randy.gg"><path class="cls-1" d="M55.9,32.49A74.87,74.87,0,0,0,53.42,17.4,47.9,47.9,0,0,0,48.71,5.72a3.56,3.56,0,0,0-1-1.12A26.08,26.08,0,0,0,36.75.09C35.6-.09,35.57-.09,35.12,1h0c2.13.84,4.24,1.58,6.28,2.5a17.43,17.43,0,0,1,5.36,4C34.2.77,21.66.78,9.08,7.34a39.89,39.89,0,0,1,3.29-2.6,24.53,24.53,0,0,1,8.45-3.59c-.42-1.24-.42-1.23-1.65-1A27.32,27.32,0,0,0,10,3.43a8.74,8.74,0,0,0-3.78,4A67.13,67.13,0,0,0,0,32.71a1.07,1.07,0,0,0,.27.67,23.29,23.29,0,0,0,15.82,7.23.64.64,0,0,0,.52-.18c.64-.8,1.25-1.64,1.78-2.34-1.93-1-3.87-2-5.72-3.09a19.1,19.1,0,0,1-4.82-4.24,2.09,2.09,0,0,1,.51.28A29.08,29.08,0,0,0,15.8,34.9a38.31,38.31,0,0,0,16.84,1.66A30.76,30.76,0,0,0,47.9,30.79s.1,0,.26-.06a25.7,25.7,0,0,1-10.78,7.19c.62.83,1.17,1.61,1.78,2.35a1,1,0,0,0,.73.33,25.26,25.26,0,0,0,3-.38A22.87,22.87,0,0,0,55.54,33.5,1.23,1.23,0,0,0,55.9,32.49ZM20.52,27.87a3.92,3.92,0,0,1-3.89-1.25,5.61,5.61,0,0,1-.05-7.49,4.11,4.11,0,0,1,6.29.13,5.46,5.46,0,0,1,1.28,3.62A4.93,4.93,0,0,1,20.52,27.87Zm19-1.51a4.13,4.13,0,0,1-6.7-.2,5.69,5.69,0,0,1,0-6.67,4.14,4.14,0,0,1,6.78,0A5.66,5.66,0,0,1,39.5,26.36ZM35.1,1a.12.12,0,0,0,0-.05A.11.11,0,0,0,35.1,1Z"/></g></g></svg>