<?xml version="1.0" encoding="UTF-8" standalone="no"?>
<svg
   xmlns:dc="http://purl.org/dc/elements/1.1/"
   xmlns:cc="http://creativecommons.org/ns#"
   xmlns:rdf="http://www.w3.org/1999/02/22-rdf-syntax-ns#"
   xmlns:svg="http://www.w3.org/2000/svg"
   xmlns="http://www.w3.org/2000/svg"
   xmlns:sodipodi="http://sodipodi.sourceforge.net/DTD/sodipodi-0.dtd"
   xmlns:inkscape="http://www.inkscape.org/namespaces/inkscape"
   width="100"
   height="100"
   viewBox="0 0 100 100"
   fill="none"
   version="1.1"
   id="svg22"
   sodipodi:docname="github.svg"
   inkscape:version="1.0.2-2 (e86c870879, 2021-01-15)">
  <metadata
     id="metadata28">
    <rdf:RDF>
      <cc:Work
         rdf:about="">
        <dc:format>image/svg+xml</dc:format>
        <dc:type
           rdf:resource="http://purl.org/dc/dcmitype/StillImage" />
        <dc:title></dc:title>
      </cc:Work>
    </rdf:RDF>
  </metadata>
  <defs
     id="defs26" />
  <sodipodi:namedview
     pagecolor="#ffffff"
     bordercolor="#666666"
     borderopacity="1"
     objecttolerance="10"
     gridtolerance="10"
     guidetolerance="10"
     inkscape:pageopacity="0"
     inkscape:pageshadow="2"
     inkscape:window-width="1920"
     inkscape:window-height="1017"
     id="namedview24"
     showgrid="false"
     inkscape:zoom="0.57107159"
     inkscape:cx="518.38192"
     inkscape:cy="547.52203"
     inkscape:window-x="-8"
     inkscape:window-y="-8"
     inkscape:window-maximized="1"
     inkscape:current-layer="svg22"
     inkscape:document-rotation="0" />
  <path
     fill-rule="evenodd"
     clip-rule="evenodd"
     d="M 50,0 C 22.375,0 0,22.375 0,50 c 0,22.125 14.3125,40.8125 34.1875,47.4375 2.5,0.4375 3.4375,-1.0625 3.4375,-2.375 0,-1.1875 -0.0625,-5.125 -0.0625,-9.3125 C 25,88.0625 21.75,82.6875 20.75,79.875 20.1875,78.4375 17.75,74 15.625,72.8125 c -1.75,-0.9375 -4.25,-3.25 -0.0625,-3.3125 3.9375,-0.0625 6.75,3.625 7.6875,5.125 4.5,7.5625 11.6875,5.4375 14.5625,4.125 C 38.25,75.5 39.5625,73.3125 41,72.0625 29.875,70.8125 18.25,66.5 18.25,47.375 c 0,-5.4375 1.9375,-9.9375 5.125,-13.4375 -0.5,-1.25 -2.25,-6.375 0.5,-13.25 0,0 4.1875,-1.3125 13.75,5.125 4,-1.125 8.25,-1.6875 12.5,-1.6875 4.25,0 8.5,0.5625 12.5,1.6875 9.5625,-6.5 13.75,-5.125 13.75,-5.125 2.75,6.875 1,12 0.5,13.25 3.1875,3.5 5.125,7.9375 5.125,13.4375 0,19.1875 -11.6875,23.4375 -22.8125,24.6875 1.8125,1.5625 3.375,4.5625 3.375,9.25 0,6.6875 -0.0625,12.0625 -0.0625,13.75 0,1.3125 0.9375,2.875 3.4375,2.375 C 85.6875,90.8125 100,72.0625 100,50 100,22.375 77.625,0 50,0 Z"
     fill="#1B1F23"
     id="path20"
     style="fill:#ffffff;stroke-width:6.25" />
</svg>
