<svg xmlns="http://www.w3.org/2000/svg" xmlns:svg="http://www.w3.org/2000/svg" id="Слой_1" width="300" height="300" x="0" y="0" enable-background="new 0 0 400 400" version="1.1" viewBox="0 0 300 300" xml:space="preserve"><metadata id="metadata17"/><g id="g5360"><g id="g4167" transform="matrix(8.7005113,0,0,8.7005113,697.4406,-1119.5869)" style="fill:#fff"><path style="fill:#fff;fill-opacity:1;fill-rule:nonzero;stroke:none" id="path4156" d="m 149.9375,79.222656 c 0,0 -63.218849,5.9e-5 -79.085938,4.123047 -8.495787,2.373802 -15.491408,9.3695 -17.865234,17.990237 -4.122953,15.8671 -4.123047,48.72656 -4.123047,48.72656 0,0 9.4e-5,32.9842 4.123047,48.60156 2.373826,8.62062 9.244506,15.49138 17.865234,17.86524 15.99203,4.24788 79.085938,4.24804 79.085938,4.24804 0,0 63.34418,-5e-5 79.21094,-4.12304 8.62079,-2.37381 15.49133,-9.11966 17.74023,-17.86524 4.24793,-15.74232 4.24805,-48.60156 4.24805,-48.60156 0,0 0.12484,-32.98446 -4.24805,-48.85156 -2.2489,-8.620737 -9.11944,-15.491334 -17.74023,-17.740237 -15.86676,-4.372847 -79.21094,-4.373047 -79.21094,-4.373047 z m -20.11523,40.480464 52.59961,30.35938 -52.59961,30.23438 z" transform="matrix(0.16941596,0,0,0.16941596,-88.332912,120.50856)"/></g></g></svg>