<?xml version="1.0" encoding="UTF-8" standalone="no"?>
<svg
   xmlns:dc="http://purl.org/dc/elements/1.1/"
   xmlns:cc="http://creativecommons.org/ns#"
   xmlns:rdf="http://www.w3.org/1999/02/22-rdf-syntax-ns#"
   xmlns:svg="http://www.w3.org/2000/svg"
   xmlns="http://www.w3.org/2000/svg"
   xmlns:sodipodi="http://sodipodi.sourceforge.net/DTD/sodipodi-0.dtd"
   xmlns:inkscape="http://www.inkscape.org/namespaces/inkscape"
   version="1.1"
   id="Layer_1"
   x="0px"
   y="0px"
   width="100"
   height="100"
   viewBox="0 0 100 100"
   enable-background="new 0 0 864 864"
   xml:space="preserve"
   sodipodi:docname="mc.svg"
   inkscape:version="1.0.2-2 (e86c870879, 2021-01-15)"><metadata
   id="metadata133"><rdf:RDF><cc:Work
       rdf:about=""><dc:format>image/svg+xml</dc:format><dc:type
         rdf:resource="http://purl.org/dc/dcmitype/StillImage" /><dc:title></dc:title></cc:Work></rdf:RDF></metadata><defs
   id="defs131" /><sodipodi:namedview
   pagecolor="#181a1b"
   bordercolor="#666666"
   borderopacity="1"
   objecttolerance="10"
   gridtolerance="10"
   guidetolerance="10"
   inkscape:pageopacity="0"
   inkscape:pageshadow="2"
   inkscape:window-width="1920"
   inkscape:window-height="1017"
   id="namedview129"
   showgrid="false"
   inkscape:zoom="2.7825961"
   inkscape:cx="-59.100809"
   inkscape:cy="24.941279"
   inkscape:window-x="-8"
   inkscape:window-y="-8"
   inkscape:window-maximized="1"
   inkscape:current-layer="g126"
   inkscape:document-rotation="0"
   showguides="true"
   inkscape:guide-bbox="true"><sodipodi:guide
     position="15.093818,100"
     orientation="0,-1"
     id="guide9" /><sodipodi:guide
     position="0,100.28588"
     orientation="1,0"
     id="guide11" /></sodipodi:namedview>
<g
   id="g126">
	<path
   fill-rule="evenodd"
   clip-rule="evenodd"
   d="m 87.23258,12.67356 c 0,24.93679 0,49.70601 0,74.639548 -24.83709,0 -49.61439,0 -74.51807,0 0,-24.841008 0,-49.658288 0,-74.639548 24.76785,0 49.54492,0 74.51807,0 z"
   id="path122"
   style="fill:none;stroke-width:0.115607" />
	<path
   fill-rule="evenodd"
   clip-rule="evenodd"
   fill="#ffffff"
   d="m 0,0 c 0,33.41785 0,66.5141 0,99.77938 33.35028,0 66.50817,0 99.832162,0 0.0653,-1.011192 0.16745,-100 0.16745,-100 C 68.79627,-0.12602 1.04299,-0.05108 0,0 Z m 11.7474,20.04628 c 1.86514,0 25.15834,0.41065 25.15834,0.41065 0.14836,6.50751 -0.0266,14.06032 -0.0266,20.83651 -8.66998,0 -16.78239,0 -25.13189,0 1.2e-4,-7.02352 1.2e-4,-13.89885 1.2e-4,-21.24716 z m 63.83764,65.211548 c 0,0 -11.68193,-0.0274 -12.37414,-0.004 -0.005,0.002 -0.01,0.004 -0.0154,0.004 -0.0286,-0.002 -0.0213,-0.003 0.0154,-0.004 0.5405,-0.18097 -0.0993,-11.401458 -0.0993,-11.401458 -4.32805,0 -22.59849,0.0487 -26.14626,-0.0512 v 11.144038 c 0,0 -8.66278,0.0197 -12.41951,0.0197 0,-10.946098 0,-21.408128 0,-32.268538 4.2192,0 8.30328,0 12.67771,0 0,-3.70701 0,-7.02521 0,-10.5704 8.5732,0 16.84652,0 25.37468,0 0,3.33718 0,6.57472 0,10.09169 4.40976,0 8.58124,0 12.98681,0 0,11.08742 0,21.89356 0,33.040288 z M 88.614035,41.34519 c -8.488295,0 -16.814695,0 -25.418535,0 0,-7.04621 0,-14.08754 0,-21.30967 8.38751,0 16.70419,0 25.418535,0 0,7.14366 0,14.1235 0,21.30967 z"
   id="path124"
   style="stroke-width:0.167735" />
</g>
</svg>
